# xmcd
#
# Track frame offsets: 
#        150
#        12372
#        25610
#        38701
#        51056
#        71655
#        82693
#        93399
#        106349
#        117043
#        132583
#        141990
#        156418
#        167149
#
# Disc length: 2404 seconds
#
# Revision: 0
# Processed by: cddbd v1.5.2PL0 Copyright (c) Steve Scherf et al.
# Submitted via: ExactAudioCopyFreeDBPlugin 1.0
#
DISCID=b209620e
DTITLE=Various Artist - Now that´s what I Call Country Music
DYEAR=2003
DGENRE=Country
TTITLE0=JOHNNY CASH - I WALK THE LINE
TTITLE1=JERRY LEE LEWIS - YOU WIN AGAIN
TTITLE2=KENNY ROGERS - RUBY (DON´T TAKE YOUR LOVBE TO TOWN)
TTITLE3=LYNN ANDERSON - STAND BY YOUR MAN
TTITLE4=EMMYLOU HARRIS and GRAM PARSONS - LOVE HURTS
TTITLE5=DON GIBSON - OH, LONESOME ME
TTITLE6=PATSY CLINE - I CAN SEE AN ANGEL WALKIN
TTITLE7=FREDDY FENDER - SILVER WINGS
TTITLE8=FARON YOUNG - IF YOU AIN´T LOVIN´
TTITLE9=CHARLEY PRIDE - ME AND BOBBY MCGHEE
TTITLE10=DAVE DUDLEY - SIX DAYS ON THE ROAD
TTITLE11=JEANNIE C. RILEY - HARPER VALLEY P.T.A.
TTITLE12=CARL BELEW - AM I THAT EASY TO FORGET
TTITLE13=HANK LOCKLIN - HEY, GOOD LOOKIN´
EXTD=
EXTT0=
EXTT1=
EXTT2=
EXTT3=
EXTT4=
EXTT5=
EXTT6=
EXTT7=
EXTT8=
EXTT9=
EXTT10=
EXTT11=
EXTT12=
EXTT13=
PLAYORDER=
